{"title":"The.Theatre.Bizarre.2011.BluRay.720p.CINEMANIA.mkv","uid":8886131,"size":5001102904,"categoryP":"video","categoryS":"hd___movies","magnet":"?xt=urn:btih:342b3bb6f9cf6a27fa27919edbb21252b67b69ef&amp;dn=The.Theatre.Bizarre.2011.BluRay.720p.CINEMANIA.mkv&amp;tr=udp%3A%2F%2Ftracker.openbittorrent.com%3A80&amp;tr=udp%3A%2F%2Fopen.demonii.com%3A1337&amp;tr=udp%3A%2F%2Ftracker.coppersurfer.tk%3A6969&amp;tr=udp%3A%2F%2Fexodus.desync.com%3A6969","seeders":1,"leechers":0,"uploader":"ABSTAIN","files":1,"time":1378466431,"description":" &lt;a href=&quot;http://www.imdb.com/title/tt1763316/&quot; rel=&quot;nofollow&quot; target=&quot;_NEW&quot;&gt;http://www.imdb.com/title/tt1763316/&lt;/a&gt;\n\nGeneral \nThe.Theatre.Bizarre.2011.BluRay.720p.CINEMANIA.mkv \nFormat : Matroska \nFormat version : Version 4 / Version 2 \nFile size : 4.66 GiB \nDuration : 1h 53mn \nOverall bit rate : 5 861 Kbps \nMovie name : CINEMANIA.CC \nEncoded date : UTC 2013-09-06 08:51:04 \nWriting application : mkvmerge v6.3.0 ('You can't stop me!') built on Jun 28 2013 20:09:41 \nWriting library : libebml v1.3.0 + libmatroska v1.4.0 \n\nVideo \nID : 1 \nFormat : AVC \nFormat/Info : Advanced Video Codec \nFormat profile : &lt;a class=&quot;__cf_email__&quot; href=&quot;/cdn-cgi/l/email-protection&quot; data-cfemail=&quot;9cd4f5fbf4dcd0a8b2ad&quot;&gt;[email&amp;#160;protected]&lt;/a&gt;&lt;script cf-hash='f9e31' type=&quot;text/javascript&quot;&gt;\n/* &lt;![CDATA[ */!function(){try{var t=&quot;currentScript&quot;in document?document.currentScript:function(){for(var t=document.getElementsByTagName(&quot;script&quot;),e=t.length;e--;)if(t[e].getAttribute(&quot;cf-hash&quot;))return t[e]}();if(t&amp;&amp;t.previousSibling){var e,r,n,i,c=t.previousSibling,a=c.getAttribute(&quot;data-cfemail&quot;);if(a){for(e=&quot;&quot;,r=parseInt(a.substr(0,2),16),n=2;a.length-n;n+=2)i=parseInt(a.substr(n,2),16)^r,e+=String.fromCharCode(i);e=document.createTextNode(e),c.parentNode.replaceChild(e,c)}}}catch(u){}}();/* ]]&gt; */&lt;/script&gt; \nFormat settings, CABAC : Yes \nFormat settings, ReFrames : 9 frames \nCodec ID : V_MPEG4/ISO/AVC \nDuration : 1h 53mn \nBit rate : 3 970 Kbps \nWidth : 1 280 pixels \nHeight : 534 pixels \nDisplay aspect ratio : 2.40:1 \nFrame rate mode : Constant \nFrame rate : 23.976 fps \nColor space : YUV \nChroma subsampling : 4:2:0 \nBit depth : 8 bits \nScan type : Progressive \nBits/(Pixel*Frame) : 0.242 \nStream size : 3.06 GiB (66%) \nTitle : CINEMANIA.CC \nWriting library : x264 core 125 r2208 d9d2288 \nEncoding settings : cabac=1 // deblock=1:-3:-3 / analyse=0x3:0x113 / me=umh / subme=10 / psy=1 / psy_rd=1.00:0.05 // me_range=32 / chroma_me=1 / trellis=2 / 8x8dct=1 / cqm=0 / deadzone=21,11 / fast_pskip=0 / chroma_qp_offset=-2 / threads=8 / lookahead_threads=1 / sliced_threads=0 / nr=0 / decimate=1 / interlaced=0 / bluray_compat=0 / constrained_intra=0 / bframes=4 / b_pyramid=2 / b_adapt=2 / b_bias=0 / direct=3 / weightb=1 / open_gop=0 / weightp=2 / keyint=250 / keyint_min=23 / scenecut=40 / intra_refresh=0 / rc=2pass / mbtree=0 / bitrate=3970 / ratetol=1.0 / qcomp=0.70 / qpmin=0 / qpmax=69 / qpstep=4 / cplxblur=20.0 / qblur=0.5 / ip_ratio=1.40 / pb_ratio=1.30 / aq=2:0.90 \nLanguage : English \nDefault : No \nForced : No \n\nAudio #1 \nID : 2 \nFormat : AC-3 \nFormat/Info : Audio Coding 3 \nMode extension : CM (complete main) \nFormat settings, Endianness : Big \nCodec ID : A_AC3 \nDuration : 1h 53mn \nBit rate mode : Constant \nBit rate : 384 Kbps \nChannel(s) : 6 channels \nChannel positions : Front: L C R, Side: L R, LFE \nSampling rate : 48.0 KHz \nBit depth : 16 bits \nCompression mode : Lossy \nStream size : 312 MiB (7%) \nTitle : den904 \nLanguage : Russian \nDefault : Yes \nForced : Yes \n\nAudio #2 \nID : 3 \nFormat : DTS \nFormat/Info : Digital Theater Systems \nMode : 16 \nFormat settings, Endianness : Big \nCodec ID : A_DTS \nDuration : 1h 53mn \nBit rate mode : Constant \nBit rate : 1 509 Kbps \nChannel(s) : 6 channels \nChannel positions : Front: L C R, Side: L R, LFE \nSampling rate : 48.0 KHz \nBit depth : 24 bits \nCompression mode : Lossy \nStream size : 1.20 GiB (26%) \nLanguage : English \nDefault : No \nForced : No \n\nText #1 \nID : 4 \nFormat : UTF-8 \nCodec ID : S_TEXT/UTF8 \nCodec ID/Info : UTF-8 Plain Text \nTitle : reddram \nLanguage : Russian \nDefault : No \nForced : No \n\nText #2 \nID : 5 \nFormat : UTF-8 \nCodec ID : S_TEXT/UTF8 \nCodec ID/Info : UTF-8 Plain Text \nLanguage : English \nDefault : No \nForced : No ","torrent":{"xt":"urn:btih:342b3bb6f9cf6a27fa27919edbb21252b67b69ef","amp;dn":"The.Theatre.Bizarre.2011.BluRay.720p.CINEMANIA.mkv","amp;tr":["udp%3A%2F%2Ftracker.openbittorrent.com%3A80","udp%3A%2F%2Fopen.demonii.com%3A1337","udp%3A%2F%2Ftracker.coppersurfer.tk%3A6969","udp%3A%2F%2Fexodus.desync.com%3A6969"],"infoHash":"342b3bb6f9cf6a27fa27919edbb21252b67b69ef","infoHashBuffer":{"type":"Buffer","data":[52,43,59,182,249,207,106,39,250,39,145,158,219,178,18,82,182,123,105,239]},"announce":[],"urlList":[]}}